<?xml version="1.0" standalone="no"?>
<!DOCTYPE svg PUBLIC "-//W3C//DTD SVG 20010904//EN"
 "http://www.w3.org/TR/2001/REC-SVG-20010904/DTD/svg10.dtd">
<svg version="1.0" xmlns="http://www.w3.org/2000/svg"
 width="808.000000pt" height="808.000000pt" viewBox="0 0 808.000000 808.000000"
 preserveAspectRatio="xMidYMid meet">
<metadata>
Created by potrace 1.14, written by Peter Selinger 2001-2017
</metadata>
<g transform="translate(0.000000,808.000000) scale(0.100000,-0.100000)"
fill="#000000" stroke="none">
<path d="M1702 7304 c-52 -41 -105 -171 -117 -289 -5 -38 -12 -134 -20 -257
-2 -31 -6 -70 -9 -85 -3 -15 -8 -71 -11 -123 -3 -52 -8 -108 -11 -124 -16 -76
2 -486 22 -518 3 -5 8 -20 10 -34 3 -15 6 -32 7 -38 1 -6 5 -13 9 -16 4 -3 9
-15 11 -25 1 -11 5 -24 8 -30 3 -5 11 -29 19 -52 7 -24 18 -43 23 -43 6 0 7
-3 4 -6 -4 -4 0 -19 8 -33 16 -29 38 -86 33 -86 -2 0 3 -7 10 -15 7 -8 30 -42
51 -76 38 -60 38 -61 20 -85 -10 -13 -19 -19 -19 -14 0 6 -5 2 -11 -7 -5 -10
-14 -18 -20 -18 -5 0 -23 -10 -39 -21 -25 -19 -37 -21 -88 -15 -45 5 -62 3
-68 -6 -17 -27 -13 -47 15 -70 28 -24 28 -25 7 -34 -11 -5 -21 -16 -22 -24 -1
-31 18 -69 38 -76 11 -3 29 -15 40 -26 11 -11 28 -18 37 -15 16 4 16 -3 -6
-80 -13 -46 -21 -88 -18 -93 3 -5 1 -11 -5 -15 -15 -9 -5 -242 13 -295 8 -25
18 -62 21 -82 8 -46 16 -51 78 -51 33 0 51 -4 55 -14 7 -18 -14 -192 -32 -263
-23 -91 -26 -111 -33 -208 -5 -62 -3 -107 4 -133 7 -22 12 -42 13 -44 12 -71
70 -170 148 -250 69 -71 187 -172 223 -190 19 -10 37 -21 40 -24 10 -13 110
-52 148 -57 84 -11 97 56 16 90 -47 19 -144 86 -144 99 0 4 15 1 34 -7 19 -8
37 -12 40 -9 3 3 11 1 18 -4 12 -10 51 -18 123 -27 37 -5 109 -24 144 -38 14
-6 29 -12 33 -12 4 -1 15 -8 25 -16 10 -9 23 -16 28 -18 6 -1 11 -17 13 -37 2
-22 8 -35 17 -35 24 0 25 -15 4 -57 -31 -64 -35 -107 -11 -131 l20 -20 -23
-22 c-26 -25 -29 -82 -5 -116 18 -26 69 -52 92 -47 25 6 31 -13 13 -47 -8 -16
-15 -32 -15 -35 1 -3 -2 -20 -5 -38 -3 -17 -7 -41 -9 -51 -1 -11 -10 -20 -20
-22 -24 -3 -44 -22 -48 -44 -3 -16 -13 -11 -68 36 -36 30 -75 57 -87 60 -30 8
-63 -4 -63 -22 0 -12 -7 -10 -32 8 -18 13 -35 23 -38 23 -3 1 -29 13 -57 28
-29 15 -54 27 -55 27 -2 -1 -20 6 -40 14 -60 26 -103 29 -122 11 -14 -15 -15
-19 -1 -38 8 -12 15 -24 15 -27 0 -3 -54 -5 -121 -4 -114 1 -189 -9 -189 -27
0 -7 -42 -18 -90 -24 -37 -5 -122 -43 -117 -53 3 -4 -1 -13 -9 -20 -8 -7 -14
-10 -14 -7 0 5 -80 -49 -117 -79 -10 -8 -33 -27 -51 -41 -35 -30 -41 -59 -15
-87 9 -11 11 -18 5 -18 -7 0 -11 -3 -10 -7 0 -5 -8 -28 -20 -53 -38 -84 -52
-240 -24 -284 3 -6 7 -15 8 -21 1 -5 5 -25 8 -44 4 -18 16 -52 26 -74 11 -22
20 -45 20 -50 0 -5 14 -28 31 -52 36 -51 71 -70 100 -55 19 11 24 32 21 103 0
20 3 37 8 37 18 0 150 -124 150 -141 0 -4 -26 -10 -57 -14 -74 -8 -97 -25 -97
-70 0 -42 4 -46 43 -47 17 -1 31 -4 31 -8 0 -20 -36 -31 -114 -33 -47 -1 -86
-5 -86 -9 0 -4 -7 -5 -15 -2 -16 7 -97 -29 -114 -50 -15 -18 -21 -75 -8 -83
13 -8 693 -16 724 -8 12 3 25 18 31 34 9 24 7 33 -9 50 -17 18 -31 21 -110 21
l-90 0 6 33 c5 23 2 39 -8 48 -13 13 -6 15 52 12 36 -2 67 -8 69 -13 2 -6 11
-10 21 -10 9 0 21 -4 27 -8 5 -5 29 -14 54 -21 65 -19 93 -32 113 -56 10 -11
15 -13 11 -5 -5 10 0 9 14 -4 12 -10 19 -23 16 -27 -3 -5 0 -9 5 -9 6 0 11 6
11 13 0 8 3 8 9 -2 5 -8 16 -11 26 -7 10 3 23 2 29 -2 28 -22 92 -39 114 -31
26 10 55 1 45 -14 -3 -5 -1 -7 4 -4 6 4 16 0 23 -8 7 -8 16 -13 20 -10 4 3 14
-3 21 -12 12 -14 12 -16 0 -8 -10 6 -12 4 -6 -4 4 -7 15 -11 25 -8 9 2 22 -3
28 -13 7 -12 25 -18 59 -19 118 -4 145 -17 41 -20 -40 -1 -95 -4 -123 -7 -27
-2 -88 -4 -135 -5 -46 0 -90 -5 -97 -11 -7 -6 -13 -23 -13 -39 0 -25 4 -29 28
-31 15 0 49 -2 75 -3 27 -2 51 -5 54 -8 3 -3 5 -21 5 -41 0 -44 22 -64 75 -67
33 -2 44 -8 54 -28 7 -14 13 -30 13 -36 2 -21 49 -32 115 -27 l68 4 -5 -30
c-3 -23 1 -33 16 -41 11 -6 22 -7 26 -4 3 3 6 2 6 -4 0 -10 27 -11 350 -16
l185 -2 3 -27 c2 -19 11 -28 30 -34 22 -6 790 -18 867 -14 63 4 176 2 385 -5
185 -6 474 -9 610 -6 8 0 58 -1 110 -2 52 -2 110 2 128 7 27 8 32 14 30 38 -1
16 -8 28 -16 28 -7 0 -10 5 -6 11 3 6 15 9 25 6 11 -3 19 -2 19 3 0 7 57 -1
70 -10 3 -2 15 2 28 9 12 6 22 8 22 4 0 -4 19 -7 42 -5 60 5 117 5 161 1 21
-3 41 -1 43 3 6 10 48 10 58 1 4 -4 54 -9 111 -11 85 -3 109 -1 133 13 43 26
30 76 -23 87 -11 2 68 5 175 5 332 1 331 0 336 70 3 46 -11 65 -45 62 -14 -1
-40 1 -57 5 -29 6 -31 10 -25 33 7 25 10 27 87 29 158 6 255 13 276 20 29 9
67 55 68 81 0 44 -10 53 -59 53 -38 0 -51 5 -74 29 -15 16 -27 38 -27 49 0 44
-31 50 -242 52 -84 1 -111 -2 -123 -14 -8 -8 -15 -19 -15 -25 0 -6 -7 -11 -15
-11 -13 0 -15 9 -9 57 3 32 7 59 9 61 1 1 116 4 256 6 240 3 253 4 266 23 16
25 2 73 -22 73 -8 0 -15 9 -15 20 0 21 -27 40 -47 33 -14 -5 -20 5 -27 42 -8
42 -20 49 -88 52 -34 2 -63 5 -65 7 -5 4 -11 32 -12 52 -1 5 -10 20 -21 32
-18 19 -32 22 -98 22 -125 0 -120 -5 -116 108 6 167 12 203 32 218 15 10 20
31 25 89 4 41 14 90 24 108 20 39 29 100 25 174 -4 62 -92 89 -222 68 -25 -4
-76 -8 -115 -9 -38 -1 -75 -4 -80 -8 -6 -3 -53 -9 -105 -13 -100 -7 -115 -8
-245 -20 -44 -4 -102 -8 -130 -9 -27 -1 -54 -4 -60 -7 -5 -3 -35 -7 -65 -9
-30 -1 -69 -3 -85 -4 -28 -2 -31 0 -28 23 5 31 -37 82 -83 101 -17 8 -43 33
-58 56 -23 36 -65 78 -123 125 -7 5 -13 18 -13 29 0 10 -14 31 -32 47 -45 40
-97 92 -144 146 -47 54 -50 51 66 62 36 3 88 12 115 20 28 7 72 18 100 24 l50
9 -30 -21 c-43 -33 -128 -66 -181 -72 -68 -9 -93 -46 -55 -84 13 -13 30 -17
64 -15 160 11 300 84 362 189 20 35 31 43 77 54 123 30 348 164 459 273 44 44
90 109 109 156 18 46 34 53 25 11 -4 -19 -11 -38 -16 -43 -5 -6 -9 -18 -9 -28
0 -10 -4 -18 -10 -18 -5 0 -16 -13 -24 -28 -20 -38 -223 -243 -276 -278 -69
-46 -100 -79 -100 -109 0 -26 2 -27 44 -23 51 5 113 39 194 107 64 54 182 172
182 183 0 4 14 22 31 40 81 87 115 232 102 439 -9 154 -8 221 5 245 13 26 9
191 -6 206 -7 7 -12 24 -12 38 0 14 -5 31 -10 36 -6 6 -13 21 -15 34 -3 13
-14 43 -25 67 -11 23 -20 47 -20 52 0 5 -11 33 -23 62 -27 62 -39 94 -36 94 1
0 -3 10 -9 22 -7 12 -15 80 -19 151 -5 125 -5 130 16 144 34 24 61 86 61 140
0 26 -5 50 -10 53 -17 10 -70 -5 -70 -20 0 -25 -17 -25 -42 0 -17 17 -24 33
-21 49 4 18 -6 32 -45 66 -28 23 -52 40 -54 38 -2 -1 -18 11 -35 28 -38 39
-45 75 -26 128 21 62 61 219 74 294 14 82 19 175 24 402 1 96 5 202 8 235 3
33 6 85 8 115 1 30 6 60 11 67 13 17 19 327 7 366 -18 56 -33 81 -67 116 -29
29 -37 32 -69 26 -51 -9 -75 -27 -189 -141 -89 -89 -116 -109 -230 -172 -137
-75 -431 -219 -484 -237 -3 -1 -18 -7 -33 -13 -39 -16 -76 -14 -115 6 l-32 18
55 18 c61 21 84 41 91 80 4 21 0 27 -23 32 -15 4 -40 1 -57 -6 -17 -7 -71 -15
-119 -17 l-89 -5 16 30 c9 17 20 34 26 37 5 3 21 31 35 61 26 56 33 136 16
163 -16 24 -52 23 -97 -4 -24 -14 -44 -22 -44 -18 0 4 -7 -1 -15 -11 -8 -11
-15 -17 -15 -13 0 3 -25 -3 -55 -13 -78 -27 -164 -41 -183 -31 -10 6 -32 4
-59 -4 -24 -7 -43 -11 -43 -8 0 3 -6 1 -12 -4 -24 -18 -58 -13 -58 8 0 74 -42
84 -101 23 -18 -19 -38 -34 -43 -34 -6 0 -12 21 -14 48 -6 104 -28 190 -57
219 -21 21 -59 9 -73 -22 -7 -14 -18 -32 -24 -41 -23 -27 -125 -129 -144 -144
-23 -17 -150 -80 -163 -80 -5 0 -11 14 -14 30 -5 24 -12 30 -33 30 -27 0 -84
-29 -84 -42 0 -4 -5 -8 -12 -8 -7 0 -26 -13 -43 -29 -16 -17 -59 -44 -95 -62
-60 -30 -73 -32 -170 -33 -99 -1 -109 1 -168 31 -101 51 -118 32 -98 -111 5
-36 4 -38 -19 -33 -14 2 -25 0 -25 -6 0 -16 -135 21 -150 41 -3 4 -26 18 -53
31 -26 13 -59 34 -73 47 -14 13 -28 24 -33 24 -4 0 -16 8 -27 18 -10 10 -53
43 -94 73 -41 31 -163 121 -270 201 -107 79 -206 152 -220 161 -35 24 -80 21
-118 -9z m4745 -4986 c-2 -13 -4 -5 -4 17 -1 22 1 32 4 23 2 -10 2 -28 0 -40z
m-20 -60 c-3 -8 -6 -5 -6 6 -1 11 2 17 5 13 3 -3 4 -12 1 -19z m-4147 -732 c0
2 12 -3 26 -11 15 -7 33 -11 40 -8 8 3 17 -2 20 -11 3 -9 9 -14 13 -12 4 3 7
-3 8 -13 2 -21 -52 -28 -74 -9 -8 7 -24 14 -36 15 -23 4 -39 22 -31 35 3 4 0
8 -6 8 -7 0 -10 -6 -7 -13 3 -8 -1 -14 -9 -14 -8 0 -14 4 -14 9 0 4 -7 8 -15
8 -8 0 -12 6 -9 13 4 10 17 12 49 7 25 -4 45 -6 45 -4z m150 -66 c0 -5 -2 -10
-4 -10 -3 0 -8 5 -11 10 -3 6 -1 10 4 10 6 0 11 -4 11 -10z m64 -5 c-4 -8 -10
-13 -14 -10 -5 3 -12 0 -16 -6 -4 -8 -3 -9 4 -5 7 4 12 2 12 -4 0 -6 5 -8 10
-5 6 3 10 1 10 -5 0 -7 -7 -9 -16 -6 -9 3 -17 6 -19 6 -3 0 -9 10 -16 21 -6
12 -7 19 -2 16 4 -2 17 -1 28 4 11 4 21 8 22 8 1 1 0 -6 -3 -14z m36 -57 c0
-9 4 -8 10 2 7 12 10 12 10 1 0 -7 6 -11 13 -8 7 3 20 0 29 -7 14 -10 14 -13
0 -26 -14 -13 -15 -12 -10 2 5 11 0 16 -18 17 -46 3 -51 4 -51 18 0 7 4 13 9
13 4 0 8 -6 8 -12z m4240 -12 c0 -2 -7 -7 -16 -10 -8 -3 -12 -2 -9 4 6 10 25
14 25 6z m-4016 -48 c-3 -4 -9 -8 -15 -8 -5 0 -9 4 -9 8 0 5 7 9 15 9 8 0 12
-4 9 -9z m142 0 c5 -7 2 -8 -7 -3 -12 7 -12 5 -1 -6 11 -12 14 -12 22 1 8 13
11 12 23 -3 12 -17 14 -17 26 -3 8 9 18 16 24 16 6 0 2 -7 -9 -16 -19 -15 -19
-16 1 -9 27 10 105 13 99 4 -7 -12 23 -18 34 -7 6 6 16 7 23 2 18 -11 60 -14
54 -4 -3 4 4 6 15 3 11 -3 20 -10 20 -15 0 -5 5 -6 10 -3 6 4 7 12 4 18 -4 7
-3 8 1 4 5 -4 11 -20 13 -35 4 -33 17 -48 27 -31 5 8 4 10 -3 5 -8 -5 -11 1
-10 18 1 13 6 22 10 20 5 -3 6 -9 4 -13 -3 -4 5 -7 17 -8 12 0 16 1 10 4 -7 3
-13 12 -13 21 0 14 2 15 9 3 8 -13 12 -13 28 0 16 13 17 12 5 -3 -8 -9 -11
-21 -8 -27 3 -5 1 -12 -4 -14 -6 -3 -5 -4 2 -2 7 1 12 8 10 14 -1 7 2 10 8 6
5 -3 10 -13 10 -21 0 -9 5 -12 12 -8 8 5 9 1 5 -12 -7 -18 -6 -18 6 -2 8 10
17 15 21 11 4 -4 4 0 0 10 -5 13 -2 16 9 11 10 -3 13 -12 10 -22 -5 -13 -2
-12 13 3 10 12 15 15 10 8 -6 -10 -4 -12 8 -7 19 7 21 -7 4 -25 -11 -10 -10
-11 5 -6 9 4 17 15 17 24 0 13 2 13 9 2 5 -7 13 -11 19 -7 6 3 18 -1 27 -11
17 -16 28 -20 90 -27 45 -5 45 -5 45 -17 0 -5 -5 -7 -11 -4 -6 4 -54 8 -107 9
-53 0 -100 6 -104 11 -5 7 -8 6 -8 0 0 -7 -32 -10 -87 -9 -116 3 -123 4 -123
13 0 5 -15 12 -32 16 -38 9 -37 9 -62 -1 -14 -5 -17 -4 -12 4 5 8 -2 12 -23
12 -31 0 -50 15 -29 23 10 3 10 9 -1 30 -15 29 -37 38 -27 11 4 -10 2 -13 -6
-8 -7 4 -24 9 -38 11 -47 7 -65 10 -70 13 -3 1 -15 1 -27 0 -22 -1 -31 18 -16
33 9 9 11 9 19 -5z m479 -59 c11 -16 1 -19 -13 -3 -7 8 -8 14 -3 14 5 0 13 -5
16 -11z m-528 -25 c-3 -3 -12 -4 -19 -1 -8 3 -5 6 6 6 11 1 17 -2 13 -5z m723
-28 c0 -2 -7 -7 -16 -10 -8 -3 -12 -2 -9 4 6 10 25 14 25 6z m115 -36 c3 -5 1
-10 -4 -10 -6 0 -11 5 -11 10 0 6 2 10 4 10 3 0 8 -4 11 -10z m-1011 -135 c-7
-17 -7 -17 -31 -8 -16 6 -15 8 7 14 14 4 26 7 27 8 1 1 0 -6 -3 -14z m3400
-40 c-4 -8 -12 -15 -20 -15 -17 0 -18 17 -1 23 22 9 27 7 21 -8z m-3097 -21
c-3 -3 -12 -4 -19 -1 -8 3 -5 6 6 6 11 1 17 -2 13 -5z"/>
<path d="M2273 1513 c-7 -3 -13 -9 -13 -14 0 -6 4 -8 9 -5 5 4 11 1 13 -6 3
-8 7 -6 11 5 7 18 -2 27 -20 20z"/>
<path d="M2306 1492 c-3 -5 1 -9 9 -9 8 0 15 4 15 9 0 4 -4 8 -9 8 -6 0 -12
-4 -15 -8z"/>
<path d="M2346 1489 c3 -6 0 -15 -7 -20 -10 -6 -7 -8 9 -6 12 0 22 2 22 3 0
12 -14 34 -22 34 -5 0 -6 -5 -2 -11z"/>
<path d="M3068 1301 c13 -11 21 -25 18 -30 -4 -5 -2 -13 4 -16 6 -4 9 -1 8 7
-2 8 4 12 17 10 24 -5 21 -2 -30 26 -36 20 -38 20 -17 3z"/>
<path d="M3110 1300 c0 -5 7 -10 16 -10 8 0 12 5 9 10 -3 6 -10 10 -16 10 -5
0 -9 -4 -9 -10z"/>
<path d="M3149 1283 c-13 -16 -12 -17 4 -4 16 13 21 21 13 21 -2 0 -10 -8 -17
-17z"/>
<path d="M3185 1286 c-11 -9 -15 -16 -10 -17 57 -8 65 -7 64 9 0 11 -2 13 -6
4 -4 -10 -8 -9 -17 3 -10 14 -13 14 -31 1z m25 -6 c0 -5 -5 -10 -11 -10 -5 0
-7 5 -4 10 3 6 8 10 11 10 2 0 4 -4 4 -10z"/>
<path d="M3495 1219 c-4 -6 -4 -13 -1 -16 3 -4 6 -1 6 6 0 7 5 9 12 5 7 -4 8
-3 4 4 -9 15 -13 15 -21 1z"/>
<path d="M1464 2781 c-3 -3 -9 -6 -12 -6 -12 -1 -97 -58 -110 -74 -34 -43 -65
-107 -69 -142 -4 -33 -2 -39 14 -39 33 0 63 12 63 25 0 10 20 32 113 121 12
11 41 32 65 47 31 20 42 34 42 53 0 24 -3 25 -50 23 -28 -2 -53 -5 -56 -8z"/>
</g>
</svg>
